<mxfile host="Electron" agent="Mozilla/5.0 (X11; Linux x86_64) AppleWebKit/537.36 (KHTML, like Gecko) draw.io/27.0.9 Chrome/134.0.6998.205 Electron/35.4.0 Safari/537.36" version="27.0.9">
  <diagram name="PÃ¡gina-1" id="OPecdaV5mAHxd7DVEl-S">
    <mxGraphModel dx="1106" dy="668" grid="1" gridSize="10" guides="1" tooltips="1" connect="1" arrows="1" fold="1" page="1" pageScale="1" pageWidth="827" pageHeight="1169" math="0" shadow="0">
      <root>
        <mxCell id="0" />
        <mxCell id="1" parent="0" />
        <mxCell id="ZrdXFBTkS8VmEMy0C7oK-35" value="" style="rounded=1;whiteSpace=wrap;html=1;dashed=1;dashPattern=8 8;strokeColor=#67AB9F;strokeWidth=2;" vertex="1" parent="1">
          <mxGeometry x="210" y="485" width="180" height="100" as="geometry" />
        </mxCell>
        <mxCell id="ZrdXFBTkS8VmEMy0C7oK-34" value="" style="rounded=1;whiteSpace=wrap;html=1;dashed=1;dashPattern=8 8;strokeColor=#67AB9F;strokeWidth=2;" vertex="1" parent="1">
          <mxGeometry x="210" y="350" width="180" height="100" as="geometry" />
        </mxCell>
        <mxCell id="ZrdXFBTkS8VmEMy0C7oK-33" value="" style="rounded=1;whiteSpace=wrap;html=1;dashed=1;dashPattern=8 8;strokeColor=#67AB9F;strokeWidth=2;" vertex="1" parent="1">
          <mxGeometry x="210" y="210" width="180" height="100" as="geometry" />
        </mxCell>
        <mxCell id="ZrdXFBTkS8VmEMy0C7oK-1" value="&lt;span style=&quot;font-size: 15px;&quot;&gt;...&lt;/span&gt;" style="whiteSpace=wrap;html=1;aspect=fixed;" vertex="1" parent="1">
          <mxGeometry x="90" y="230" width="60" height="60" as="geometry" />
        </mxCell>
        <mxCell id="ZrdXFBTkS8VmEMy0C7oK-8" value="&lt;span style=&quot;font-size: 15px;&quot;&gt;....&lt;/span&gt;" style="whiteSpace=wrap;html=1;aspect=fixed;" vertex="1" parent="1">
          <mxGeometry x="150" y="230" width="60" height="60" as="geometry" />
        </mxCell>
        <mxCell id="ZrdXFBTkS8VmEMy0C7oK-9" value="&lt;font style=&quot;font-size: 15px;&quot;&gt;&lt;b&gt;t&lt;sub style=&quot;&quot;&gt;n-2&lt;/sub&gt;&lt;/b&gt;&lt;/font&gt;" style="whiteSpace=wrap;html=1;aspect=fixed;" vertex="1" parent="1">
          <mxGeometry x="210" y="230" width="60" height="60" as="geometry" />
        </mxCell>
        <mxCell id="ZrdXFBTkS8VmEMy0C7oK-13" style="edgeStyle=orthogonalEdgeStyle;rounded=0;orthogonalLoop=1;jettySize=auto;html=1;entryX=0;entryY=0.5;entryDx=0;entryDy=0;strokeColor=#990099;strokeWidth=2;" edge="1" parent="1" source="ZrdXFBTkS8VmEMy0C7oK-10" target="ZrdXFBTkS8VmEMy0C7oK-12">
          <mxGeometry relative="1" as="geometry" />
        </mxCell>
        <mxCell id="ZrdXFBTkS8VmEMy0C7oK-10" value="&lt;font style=&quot;font-size: 15px;&quot;&gt;&lt;b&gt;t&lt;sub style=&quot;&quot;&gt;n&lt;/sub&gt;&lt;/b&gt;&lt;/font&gt;" style="whiteSpace=wrap;html=1;aspect=fixed;" vertex="1" parent="1">
          <mxGeometry x="330" y="230" width="60" height="60" as="geometry" />
        </mxCell>
        <mxCell id="ZrdXFBTkS8VmEMy0C7oK-11" value="&lt;font style=&quot;font-size: 15px;&quot;&gt;&lt;b&gt;t&lt;sub style=&quot;&quot;&gt;n-1&lt;/sub&gt;&lt;/b&gt;&lt;/font&gt;" style="whiteSpace=wrap;html=1;aspect=fixed;" vertex="1" parent="1">
          <mxGeometry x="270" y="230" width="60" height="60" as="geometry" />
        </mxCell>
        <mxCell id="ZrdXFBTkS8VmEMy0C7oK-12" value="&lt;font style=&quot;font-size: 15px; color: rgb(0, 0, 204);&quot;&gt;&lt;b style=&quot;&quot;&gt;t&lt;sub style=&quot;&quot;&gt;n+1&lt;/sub&gt;&lt;/b&gt;&lt;/font&gt;" style="whiteSpace=wrap;html=1;aspect=fixed;" vertex="1" parent="1">
          <mxGeometry x="560" y="230" width="60" height="60" as="geometry" />
        </mxCell>
        <mxCell id="ZrdXFBTkS8VmEMy0C7oK-14" value="&lt;font style=&quot;color: rgb(153, 0, 153);&quot;&gt;&lt;b style=&quot;&quot;&gt;Model 1 trained to&lt;/b&gt;&lt;/font&gt;&lt;div&gt;&lt;font style=&quot;color: rgb(153, 0, 153);&quot;&gt;&lt;b style=&quot;&quot;&gt;predict t&lt;sub style=&quot;&quot;&gt;n+1&lt;/sub&gt;&lt;/b&gt;&lt;/font&gt;&lt;/div&gt;" style="text;html=1;align=center;verticalAlign=middle;whiteSpace=wrap;rounded=0;" vertex="1" parent="1">
          <mxGeometry x="410" y="220" width="140" height="30" as="geometry" />
        </mxCell>
        <mxCell id="ZrdXFBTkS8VmEMy0C7oK-15" value="" style="endArrow=none;html=1;rounded=0;dashed=1;dashPattern=8 8;" edge="1" parent="1">
          <mxGeometry width="50" height="50" relative="1" as="geometry">
            <mxPoint x="560" y="590" as="sourcePoint" />
            <mxPoint x="560" y="160" as="targetPoint" />
          </mxGeometry>
        </mxCell>
        <mxCell id="ZrdXFBTkS8VmEMy0C7oK-16" value="&lt;span style=&quot;font-size: 15px;&quot;&gt;...&lt;/span&gt;" style="whiteSpace=wrap;html=1;aspect=fixed;" vertex="1" parent="1">
          <mxGeometry x="90" y="370" width="60" height="60" as="geometry" />
        </mxCell>
        <mxCell id="ZrdXFBTkS8VmEMy0C7oK-17" value="&lt;span style=&quot;font-size: 15px;&quot;&gt;....&lt;/span&gt;" style="whiteSpace=wrap;html=1;aspect=fixed;" vertex="1" parent="1">
          <mxGeometry x="150" y="370" width="60" height="60" as="geometry" />
        </mxCell>
        <mxCell id="ZrdXFBTkS8VmEMy0C7oK-18" value="&lt;font style=&quot;font-size: 15px;&quot;&gt;&lt;b&gt;t&lt;sub style=&quot;&quot;&gt;n-2&lt;/sub&gt;&lt;/b&gt;&lt;/font&gt;" style="whiteSpace=wrap;html=1;aspect=fixed;" vertex="1" parent="1">
          <mxGeometry x="210" y="370" width="60" height="60" as="geometry" />
        </mxCell>
        <mxCell id="ZrdXFBTkS8VmEMy0C7oK-28" style="edgeStyle=orthogonalEdgeStyle;rounded=0;orthogonalLoop=1;jettySize=auto;html=1;entryX=0;entryY=0.5;entryDx=0;entryDy=0;strokeColor=#FF0000;strokeWidth=2;" edge="1" parent="1" source="ZrdXFBTkS8VmEMy0C7oK-19" target="ZrdXFBTkS8VmEMy0C7oK-26">
          <mxGeometry relative="1" as="geometry" />
        </mxCell>
        <mxCell id="ZrdXFBTkS8VmEMy0C7oK-19" value="&lt;font style=&quot;font-size: 15px;&quot;&gt;&lt;b&gt;t&lt;sub style=&quot;&quot;&gt;n&lt;/sub&gt;&lt;/b&gt;&lt;/font&gt;" style="whiteSpace=wrap;html=1;aspect=fixed;" vertex="1" parent="1">
          <mxGeometry x="330" y="370" width="60" height="60" as="geometry" />
        </mxCell>
        <mxCell id="ZrdXFBTkS8VmEMy0C7oK-20" value="&lt;font style=&quot;font-size: 15px;&quot;&gt;&lt;b&gt;t&lt;sub style=&quot;&quot;&gt;n-1&lt;/sub&gt;&lt;/b&gt;&lt;/font&gt;" style="whiteSpace=wrap;html=1;aspect=fixed;" vertex="1" parent="1">
          <mxGeometry x="270" y="370" width="60" height="60" as="geometry" />
        </mxCell>
        <mxCell id="ZrdXFBTkS8VmEMy0C7oK-21" value="&lt;span style=&quot;font-size: 15px;&quot;&gt;...&lt;/span&gt;" style="whiteSpace=wrap;html=1;aspect=fixed;" vertex="1" parent="1">
          <mxGeometry x="90" y="500" width="60" height="60" as="geometry" />
        </mxCell>
        <mxCell id="ZrdXFBTkS8VmEMy0C7oK-22" value="&lt;span style=&quot;font-size: 15px;&quot;&gt;....&lt;/span&gt;" style="whiteSpace=wrap;html=1;aspect=fixed;" vertex="1" parent="1">
          <mxGeometry x="150" y="500" width="60" height="60" as="geometry" />
        </mxCell>
        <mxCell id="ZrdXFBTkS8VmEMy0C7oK-23" value="&lt;font style=&quot;font-size: 15px;&quot;&gt;&lt;b&gt;t&lt;sub style=&quot;&quot;&gt;n-2&lt;/sub&gt;&lt;/b&gt;&lt;/font&gt;" style="whiteSpace=wrap;html=1;aspect=fixed;" vertex="1" parent="1">
          <mxGeometry x="210" y="500" width="60" height="60" as="geometry" />
        </mxCell>
        <mxCell id="ZrdXFBTkS8VmEMy0C7oK-29" style="edgeStyle=orthogonalEdgeStyle;rounded=0;orthogonalLoop=1;jettySize=auto;html=1;entryX=0;entryY=0.5;entryDx=0;entryDy=0;strokeColor=#CC6600;strokeWidth=2;" edge="1" parent="1" source="ZrdXFBTkS8VmEMy0C7oK-24" target="ZrdXFBTkS8VmEMy0C7oK-27">
          <mxGeometry relative="1" as="geometry" />
        </mxCell>
        <mxCell id="ZrdXFBTkS8VmEMy0C7oK-24" value="&lt;font style=&quot;font-size: 15px;&quot;&gt;&lt;b&gt;t&lt;sub style=&quot;&quot;&gt;n&lt;/sub&gt;&lt;/b&gt;&lt;/font&gt;" style="whiteSpace=wrap;html=1;aspect=fixed;" vertex="1" parent="1">
          <mxGeometry x="330" y="500" width="60" height="60" as="geometry" />
        </mxCell>
        <mxCell id="ZrdXFBTkS8VmEMy0C7oK-25" value="&lt;font style=&quot;font-size: 15px;&quot;&gt;&lt;b&gt;t&lt;sub style=&quot;&quot;&gt;n-1&lt;/sub&gt;&lt;/b&gt;&lt;/font&gt;" style="whiteSpace=wrap;html=1;aspect=fixed;" vertex="1" parent="1">
          <mxGeometry x="270" y="500" width="60" height="60" as="geometry" />
        </mxCell>
        <mxCell id="ZrdXFBTkS8VmEMy0C7oK-26" value="&lt;font style=&quot;font-size: 15px; color: rgb(0, 0, 204);&quot;&gt;&lt;b&gt;t&lt;sub style=&quot;&quot;&gt;n+2&lt;/sub&gt;&lt;/b&gt;&lt;/font&gt;" style="whiteSpace=wrap;html=1;aspect=fixed;" vertex="1" parent="1">
          <mxGeometry x="620" y="370" width="60" height="60" as="geometry" />
        </mxCell>
        <mxCell id="ZrdXFBTkS8VmEMy0C7oK-27" value="&lt;font style=&quot;font-size: 15px; color: rgb(0, 0, 204);&quot;&gt;&lt;b&gt;t&lt;sub style=&quot;&quot;&gt;n+3&lt;/sub&gt;&lt;/b&gt;&lt;/font&gt;" style="whiteSpace=wrap;html=1;aspect=fixed;" vertex="1" parent="1">
          <mxGeometry x="680" y="500" width="60" height="60" as="geometry" />
        </mxCell>
        <mxCell id="ZrdXFBTkS8VmEMy0C7oK-30" value="&lt;font style=&quot;color: rgb(255, 0, 0);&quot;&gt;&lt;b&gt;Model 2 trained to&lt;/b&gt;&lt;/font&gt;&lt;div&gt;&lt;font style=&quot;color: rgb(255, 0, 0);&quot;&gt;&lt;b&gt;predict t&lt;sub&gt;n+2&lt;/sub&gt;&lt;/b&gt;&lt;/font&gt;&lt;/div&gt;" style="text;html=1;align=center;verticalAlign=middle;whiteSpace=wrap;rounded=0;" vertex="1" parent="1">
          <mxGeometry x="420" y="360" width="140" height="30" as="geometry" />
        </mxCell>
        <mxCell id="ZrdXFBTkS8VmEMy0C7oK-31" value="&lt;font style=&quot;color: rgb(204, 102, 0);&quot;&gt;&lt;b&gt;Model 3 trained to&lt;/b&gt;&lt;/font&gt;&lt;div&gt;&lt;font style=&quot;color: rgb(204, 102, 0);&quot;&gt;&lt;b&gt;predict t&lt;sub&gt;n+3&lt;/sub&gt;&lt;/b&gt;&lt;/font&gt;&lt;/div&gt;" style="text;html=1;align=center;verticalAlign=middle;whiteSpace=wrap;rounded=0;" vertex="1" parent="1">
          <mxGeometry x="414" y="490" width="140" height="30" as="geometry" />
        </mxCell>
        <mxCell id="ZrdXFBTkS8VmEMy0C7oK-36" value="&lt;b&gt;Window size = 3&lt;/b&gt;" style="text;html=1;align=center;verticalAlign=middle;whiteSpace=wrap;rounded=0;" vertex="1" parent="1">
          <mxGeometry x="140" y="150" width="120" height="30" as="geometry" />
        </mxCell>
        <mxCell id="ZrdXFBTkS8VmEMy0C7oK-37" value="" style="rounded=1;whiteSpace=wrap;html=1;dashed=1;dashPattern=8 8;strokeColor=#67AB9F;strokeWidth=2;" vertex="1" parent="1">
          <mxGeometry x="220" y="730" width="180" height="100" as="geometry" />
        </mxCell>
        <mxCell id="ZrdXFBTkS8VmEMy0C7oK-38" value="&lt;span style=&quot;font-size: 15px;&quot;&gt;...&lt;/span&gt;" style="whiteSpace=wrap;html=1;aspect=fixed;" vertex="1" parent="1">
          <mxGeometry x="100" y="745" width="60" height="60" as="geometry" />
        </mxCell>
        <mxCell id="ZrdXFBTkS8VmEMy0C7oK-39" value="&lt;span style=&quot;font-size: 15px;&quot;&gt;....&lt;/span&gt;" style="whiteSpace=wrap;html=1;aspect=fixed;" vertex="1" parent="1">
          <mxGeometry x="160" y="745" width="60" height="60" as="geometry" />
        </mxCell>
        <mxCell id="ZrdXFBTkS8VmEMy0C7oK-40" value="&lt;font style=&quot;font-size: 15px;&quot;&gt;&lt;b&gt;t&lt;sub style=&quot;&quot;&gt;n-2&lt;/sub&gt;&lt;/b&gt;&lt;/font&gt;" style="whiteSpace=wrap;html=1;aspect=fixed;" vertex="1" parent="1">
          <mxGeometry x="220" y="745" width="60" height="60" as="geometry" />
        </mxCell>
        <mxCell id="ZrdXFBTkS8VmEMy0C7oK-46" style="edgeStyle=orthogonalEdgeStyle;rounded=0;orthogonalLoop=1;jettySize=auto;html=1;entryX=0;entryY=0.5;entryDx=0;entryDy=0;strokeColor=#009999;strokeWidth=2;" edge="1" parent="1" source="ZrdXFBTkS8VmEMy0C7oK-41" target="ZrdXFBTkS8VmEMy0C7oK-43">
          <mxGeometry relative="1" as="geometry" />
        </mxCell>
        <mxCell id="ZrdXFBTkS8VmEMy0C7oK-41" value="&lt;font style=&quot;font-size: 15px;&quot;&gt;&lt;b&gt;t&lt;sub style=&quot;&quot;&gt;n&lt;/sub&gt;&lt;/b&gt;&lt;/font&gt;" style="whiteSpace=wrap;html=1;aspect=fixed;" vertex="1" parent="1">
          <mxGeometry x="340" y="745" width="60" height="60" as="geometry" />
        </mxCell>
        <mxCell id="ZrdXFBTkS8VmEMy0C7oK-42" value="&lt;font style=&quot;font-size: 15px;&quot;&gt;&lt;b&gt;t&lt;sub style=&quot;&quot;&gt;n-1&lt;/sub&gt;&lt;/b&gt;&lt;/font&gt;" style="whiteSpace=wrap;html=1;aspect=fixed;" vertex="1" parent="1">
          <mxGeometry x="280" y="745" width="60" height="60" as="geometry" />
        </mxCell>
        <mxCell id="ZrdXFBTkS8VmEMy0C7oK-43" value="&lt;font style=&quot;font-size: 15px; color: rgb(0, 0, 204);&quot;&gt;&lt;b style=&quot;&quot;&gt;t&lt;sub style=&quot;&quot;&gt;n+1&lt;/sub&gt;&lt;/b&gt;&lt;/font&gt;" style="whiteSpace=wrap;html=1;aspect=fixed;" vertex="1" parent="1">
          <mxGeometry x="554" y="745" width="60" height="60" as="geometry" />
        </mxCell>
        <mxCell id="ZrdXFBTkS8VmEMy0C7oK-44" value="&lt;font style=&quot;font-size: 15px; color: rgb(0, 0, 204);&quot;&gt;&lt;b style=&quot;&quot;&gt;t&lt;sub style=&quot;&quot;&gt;n+2&lt;/sub&gt;&lt;/b&gt;&lt;/font&gt;" style="whiteSpace=wrap;html=1;aspect=fixed;" vertex="1" parent="1">
          <mxGeometry x="614" y="745" width="60" height="60" as="geometry" />
        </mxCell>
        <mxCell id="ZrdXFBTkS8VmEMy0C7oK-45" value="&lt;font style=&quot;font-size: 15px; color: rgb(0, 0, 204);&quot;&gt;&lt;b style=&quot;&quot;&gt;t&lt;sub style=&quot;&quot;&gt;n+3&lt;/sub&gt;&lt;/b&gt;&lt;/font&gt;" style="whiteSpace=wrap;html=1;aspect=fixed;" vertex="1" parent="1">
          <mxGeometry x="674" y="745" width="60" height="60" as="geometry" />
        </mxCell>
        <mxCell id="ZrdXFBTkS8VmEMy0C7oK-47" value="&lt;font style=&quot;color: rgb(0, 153, 153);&quot;&gt;&lt;b&gt;The model make predictions all at once&lt;/b&gt;&lt;/font&gt;" style="text;html=1;align=center;verticalAlign=middle;whiteSpace=wrap;rounded=0;" vertex="1" parent="1">
          <mxGeometry x="420" y="705" width="120" height="40" as="geometry" />
        </mxCell>
        <mxCell id="ZrdXFBTkS8VmEMy0C7oK-48" value="&lt;b&gt;Window size = 3&lt;/b&gt;" style="text;html=1;align=center;verticalAlign=middle;whiteSpace=wrap;rounded=0;" vertex="1" parent="1">
          <mxGeometry x="200" y="680" width="120" height="30" as="geometry" />
        </mxCell>
      </root>
    </mxGraphModel>
  </diagram>
</mxfile>
